<mxfile host="app.diagrams.net" modified="2021-12-02T22:04:06.639Z" agent="5.0 (Windows NT 10.0; Win64; x64) AppleWebKit/537.36 (KHTML, like Gecko) Chrome/96.0.4664.45 Safari/537.36" etag="QWov1VbGS8oz77ZBV_jL" version="15.7.3" type="github">
  <diagram id="77WByTKQZ4WkWj-xMHBO" name="Page-1">
    <mxGraphModel dx="1422" dy="798" grid="1" gridSize="10" guides="1" tooltips="1" connect="1" arrows="1" fold="1" page="1" pageScale="1" pageWidth="1169" pageHeight="827" math="0" shadow="0">
      <root>
        <mxCell id="0" />
        <mxCell id="1" parent="0" />
        <mxCell id="v8vQNI5UJA072UsTiCtU-11" style="edgeStyle=none;rounded=0;orthogonalLoop=1;jettySize=auto;html=1;" edge="1" parent="1" source="v8vQNI5UJA072UsTiCtU-1">
          <mxGeometry relative="1" as="geometry">
            <mxPoint x="260" y="360" as="targetPoint" />
            <Array as="points">
              <mxPoint x="260" y="330" />
            </Array>
          </mxGeometry>
        </mxCell>
        <mxCell id="v8vQNI5UJA072UsTiCtU-1" value="Carehome Booking System" style="aspect=fixed;html=1;points=[];align=center;image;fontSize=12;image=img/lib/azure2/app_services/App_Services.svg;" vertex="1" parent="1">
          <mxGeometry x="185" y="33.28" width="150" height="150" as="geometry" />
        </mxCell>
        <mxCell id="v8vQNI5UJA072UsTiCtU-5" style="edgeStyle=none;rounded=0;orthogonalLoop=1;jettySize=auto;html=1;entryX=1.007;entryY=0.507;entryDx=0;entryDy=0;entryPerimeter=0;" edge="1" parent="1" source="v8vQNI5UJA072UsTiCtU-2" target="v8vQNI5UJA072UsTiCtU-1">
          <mxGeometry relative="1" as="geometry" />
        </mxCell>
        <mxCell id="v8vQNI5UJA072UsTiCtU-2" value="Room Occupancy Data" style="verticalLabelPosition=bottom;html=1;verticalAlign=top;strokeWidth=1;align=center;outlineConnect=0;dashed=0;outlineConnect=0;shape=mxgraph.aws3d.file;aspect=fixed;strokeColor=#292929;" vertex="1" parent="1">
          <mxGeometry x="600" y="33.28" width="70" height="160.45" as="geometry" />
        </mxCell>
        <mxCell id="v8vQNI5UJA072UsTiCtU-4" style="edgeStyle=none;rounded=0;orthogonalLoop=1;jettySize=auto;html=1;exitX=0;exitY=0.5;exitDx=0;exitDy=0;exitPerimeter=0;" edge="1" parent="1" source="v8vQNI5UJA072UsTiCtU-3" target="v8vQNI5UJA072UsTiCtU-2">
          <mxGeometry relative="1" as="geometry" />
        </mxCell>
        <mxCell id="v8vQNI5UJA072UsTiCtU-3" value="Cool Care" style="outlineConnect=0;dashed=0;verticalLabelPosition=bottom;verticalAlign=top;align=center;html=1;shape=mxgraph.aws3.android;fillColor=#EE472A;gradientColor=none;" vertex="1" parent="1">
          <mxGeometry x="960" y="50" width="103.5" height="127" as="geometry" />
        </mxCell>
        <mxCell id="v8vQNI5UJA072UsTiCtU-28" style="edgeStyle=none;rounded=0;orthogonalLoop=1;jettySize=auto;html=1;exitX=0.5;exitY=0.5;exitDx=0;exitDy=0;exitPerimeter=0;entryX=-0.01;entryY=0.38;entryDx=0;entryDy=0;entryPerimeter=0;" edge="1" parent="1" source="v8vQNI5UJA072UsTiCtU-6" target="v8vQNI5UJA072UsTiCtU-10">
          <mxGeometry relative="1" as="geometry" />
        </mxCell>
        <mxCell id="v8vQNI5UJA072UsTiCtU-6" value="Actor" style="shape=umlActor;verticalLabelPosition=bottom;verticalAlign=top;html=1;outlineConnect=0;" vertex="1" parent="1">
          <mxGeometry x="50" y="290" width="30" height="60" as="geometry" />
        </mxCell>
        <mxCell id="v8vQNI5UJA072UsTiCtU-13" style="edgeStyle=none;rounded=0;orthogonalLoop=1;jettySize=auto;html=1;entryX=0.5;entryY=0;entryDx=0;entryDy=0;" edge="1" parent="1" source="v8vQNI5UJA072UsTiCtU-10" target="v8vQNI5UJA072UsTiCtU-12">
          <mxGeometry relative="1" as="geometry" />
        </mxCell>
        <mxCell id="v8vQNI5UJA072UsTiCtU-30" style="edgeStyle=none;rounded=0;orthogonalLoop=1;jettySize=auto;html=1;exitX=1;exitY=0.5;exitDx=0;exitDy=0;entryX=0.5;entryY=0;entryDx=0;entryDy=0;" edge="1" parent="1" source="v8vQNI5UJA072UsTiCtU-10" target="v8vQNI5UJA072UsTiCtU-29">
          <mxGeometry relative="1" as="geometry" />
        </mxCell>
        <mxCell id="v8vQNI5UJA072UsTiCtU-10" value="Enter Room Enquiry" style="rounded=1;whiteSpace=wrap;html=1;absoluteArcSize=1;arcSize=14;strokeWidth=2;" vertex="1" parent="1">
          <mxGeometry x="210" y="290" width="100" height="100" as="geometry" />
        </mxCell>
        <mxCell id="v8vQNI5UJA072UsTiCtU-15" value="" style="edgeStyle=none;rounded=0;orthogonalLoop=1;jettySize=auto;html=1;" edge="1" parent="1" source="v8vQNI5UJA072UsTiCtU-12" target="v8vQNI5UJA072UsTiCtU-14">
          <mxGeometry relative="1" as="geometry" />
        </mxCell>
        <mxCell id="v8vQNI5UJA072UsTiCtU-12" value="Room Sent For Approval" style="rounded=1;whiteSpace=wrap;html=1;absoluteArcSize=1;arcSize=14;strokeWidth=2;" vertex="1" parent="1">
          <mxGeometry x="210" y="470" width="100" height="100" as="geometry" />
        </mxCell>
        <mxCell id="v8vQNI5UJA072UsTiCtU-18" style="edgeStyle=none;rounded=0;orthogonalLoop=1;jettySize=auto;html=1;exitX=0.742;exitY=0.77;exitDx=0;exitDy=0;exitPerimeter=0;entryX=0.5;entryY=0;entryDx=0;entryDy=0;" edge="1" parent="1" source="v8vQNI5UJA072UsTiCtU-14" target="v8vQNI5UJA072UsTiCtU-16">
          <mxGeometry relative="1" as="geometry" />
        </mxCell>
        <mxCell id="v8vQNI5UJA072UsTiCtU-19" style="edgeStyle=none;rounded=0;orthogonalLoop=1;jettySize=auto;html=1;exitX=0.167;exitY=0.7;exitDx=0;exitDy=0;exitPerimeter=0;entryX=0.5;entryY=0;entryDx=0;entryDy=0;" edge="1" parent="1" source="v8vQNI5UJA072UsTiCtU-14" target="v8vQNI5UJA072UsTiCtU-17">
          <mxGeometry relative="1" as="geometry" />
        </mxCell>
        <mxCell id="v8vQNI5UJA072UsTiCtU-14" value="Is room approved" style="strokeWidth=2;html=1;shape=mxgraph.flowchart.decision;whiteSpace=wrap;" vertex="1" parent="1">
          <mxGeometry x="200" y="610" width="120" height="100" as="geometry" />
        </mxCell>
        <mxCell id="v8vQNI5UJA072UsTiCtU-24" style="edgeStyle=none;rounded=0;orthogonalLoop=1;jettySize=auto;html=1;exitX=0.5;exitY=1;exitDx=0;exitDy=0;entryX=0.5;entryY=0;entryDx=0;entryDy=0;" edge="1" parent="1" source="v8vQNI5UJA072UsTiCtU-16" target="v8vQNI5UJA072UsTiCtU-23">
          <mxGeometry relative="1" as="geometry" />
        </mxCell>
        <mxCell id="v8vQNI5UJA072UsTiCtU-16" value="Book room and inform the user" style="rounded=1;whiteSpace=wrap;html=1;absoluteArcSize=1;arcSize=14;strokeWidth=2;" vertex="1" parent="1">
          <mxGeometry x="255" y="730" width="100" height="100" as="geometry" />
        </mxCell>
        <mxCell id="v8vQNI5UJA072UsTiCtU-17" value="Inform user with a reason why" style="rounded=1;whiteSpace=wrap;html=1;absoluteArcSize=1;arcSize=14;strokeWidth=2;" vertex="1" parent="1">
          <mxGeometry x="140" y="730" width="100" height="100" as="geometry" />
        </mxCell>
        <mxCell id="v8vQNI5UJA072UsTiCtU-20" value="No" style="text;html=1;strokeColor=none;fillColor=none;align=center;verticalAlign=middle;whiteSpace=wrap;rounded=0;" vertex="1" parent="1">
          <mxGeometry x="150" y="680" width="60" height="30" as="geometry" />
        </mxCell>
        <mxCell id="v8vQNI5UJA072UsTiCtU-21" value="Yes" style="text;html=1;strokeColor=none;fillColor=none;align=center;verticalAlign=middle;whiteSpace=wrap;rounded=0;" vertex="1" parent="1">
          <mxGeometry x="290" y="680" width="60" height="30" as="geometry" />
        </mxCell>
        <mxCell id="v8vQNI5UJA072UsTiCtU-26" value="" style="edgeStyle=none;rounded=0;orthogonalLoop=1;jettySize=auto;html=1;" edge="1" parent="1" source="v8vQNI5UJA072UsTiCtU-23" target="v8vQNI5UJA072UsTiCtU-25">
          <mxGeometry relative="1" as="geometry" />
        </mxCell>
        <mxCell id="v8vQNI5UJA072UsTiCtU-23" value="Take a fee" style="rounded=1;whiteSpace=wrap;html=1;absoluteArcSize=1;arcSize=14;strokeWidth=2;" vertex="1" parent="1">
          <mxGeometry x="255" y="890" width="100" height="100" as="geometry" />
        </mxCell>
        <mxCell id="v8vQNI5UJA072UsTiCtU-27" style="edgeStyle=none;rounded=0;orthogonalLoop=1;jettySize=auto;html=1;exitX=1;exitY=0.5;exitDx=0;exitDy=0;entryX=0;entryY=0.75;entryDx=0;entryDy=0;entryPerimeter=0;" edge="1" parent="1" source="v8vQNI5UJA072UsTiCtU-25" target="v8vQNI5UJA072UsTiCtU-3">
          <mxGeometry relative="1" as="geometry" />
        </mxCell>
        <mxCell id="v8vQNI5UJA072UsTiCtU-25" value="Update Cool Care" style="rounded=1;whiteSpace=wrap;html=1;absoluteArcSize=1;arcSize=14;strokeWidth=2;" vertex="1" parent="1">
          <mxGeometry x="255" y="1050" width="100" height="100" as="geometry" />
        </mxCell>
        <mxCell id="v8vQNI5UJA072UsTiCtU-29" value="Care needs provided" style="rounded=1;whiteSpace=wrap;html=1;absoluteArcSize=1;arcSize=14;strokeWidth=2;" vertex="1" parent="1">
          <mxGeometry x="400" y="470" width="100" height="100" as="geometry" />
        </mxCell>
      </root>
    </mxGraphModel>
  </diagram>
</mxfile>
